# xmcd CD database file
#
# Track frame offsets:
#	150
#	24217
#	41801
#	60475
#	83398
#	107471
#	128561
#	149381
#	171169
#
# Disc length: 2575 seconds
#
# Revision: 1
# Processed by: cddbd v1.4PL0 Copyright (c) Steve Scherf et al.
# Submitted via: CDex 1.51
#
DISCID=650a0d09
DTITLE=Analysis - Ocean Wave
DYEAR=1998
DGENRE=Jazz
TTITLE0=Ocean Wave
TTITLE1=Dim the Lights
TTITLE2=East of Somewhere
TTITLE3=Say Ya Gonna Love Me
TTITLE4=Baby Take off Dem Shoes
TTITLE5=Caravan of Love
TTITLE6=On Track
TTITLE7=Thinking Bout Ya
TTITLE8=Expression
EXTD=YEAR: 1998
EXTT0=
EXTT1=
EXTT2=
EXTT3=
EXTT4=
EXTT5=
EXTT6=
EXTT7=
EXTT8=
PLAYORDER=
